<?xml version="1.0" encoding="UTF-8"?>
<svg id="Livello_1" data-name="Livello 1" xmlns="http://www.w3.org/2000/svg" viewBox="0 0 128 22">
  <defs>
    <style>
      .cls-1 {
        fill: #00a88f;
        fill-rule: evenodd;
        stroke-width: 0px;
      }
    </style>
  </defs>
  <path class="cls-1" d="M14.82,2.33c2.65-2.65,6.97-2.65,9.62,0,2.65,2.65,2.65,6.95,0,9.6h0l-9.3,9.28c-1.06,1.06-2.79,1.06-3.85,0h0l11.22-11.2c.77-.77,1.2-1.79,1.2-2.88s-.42-2.11-1.2-2.88c-1.59-1.59-4.18-1.59-5.77,0h0l-7.37,7.36-3.53-3.52c-.53-.53-.53-1.39,0-1.92.53-.53,1.39-.53,1.92,0h0l1.6,1.6,5.45-5.44ZM121.39,6.14c4.08,0,6.53,2.59,6.53,6.85,0,.52-.06,1.04-.06,1.1h-9.47c.06,1.74,1.56,3.01,3.33,3.01,1.66,0,2.58-.83,3.02-2.01h0l3.02.89c-.69,2.28-2.77,4.19-6.03,4.19-3.64,0-6.84-2.61-6.84-7.08,0-4.21,3.12-6.95,6.51-6.95ZM57.81,6.14c4.2,0,5.76,2.37,5.76,5.02h0v6.5c0,.71.08,1.64.17,2.1h-3.29c-.06-.33-.12-1.06-.12-1.58-.69,1.06-1.96,1.97-3.91,1.97-2.83,0-4.56-1.91-4.56-3.98,0-2.37,1.75-3.69,3.95-4.03h0l3.27-.48c.75-.1,1-.48,1-.93,0-.93-.73-1.72-2.23-1.72s-2.43,1-2.54,2.16h0l-3.18-.66c.21-2.08,2.12-4.36,5.68-4.36ZM90.67.31v14.98c0,1.14.64,1.47,1.54,1.47.19,0,.37,0,.62-.02h0v3.05c-.5.1-.92.17-1.48.17-2.58,0-4.2-1.51-4.2-4.07h0V.31h3.52ZM38.07,2.59v3.95h2.67v3.17h-2.67v5.54c0,1.16.54,1.53,1.56,1.53.43,0,.92-.05,1.11-.11h0v2.96c-.32.13-.97.32-2.02.32-2.59,0-4.2-1.53-4.2-4.09h0v-6.16h-2.4v-3.17h.67c1.4,0,2.05-.91,2.05-2.1h0v-1.86h3.23ZM79.86,6.18c3.29,0,4.78,2.34,4.78,5.25h0v8.34h-3.58v-7.72c0-1.47-.73-2.64-2.45-2.64-1.56,0-2.48,1.2-2.48,2.74h0v7.6h-3.58V6.54h3.47v1.64c.81-1.37,2.39-1.99,3.83-1.99ZM108.35,6.18c3.29,0,4.78,2.34,4.78,5.25h0v8.34h-3.58v-7.72c0-1.47-.73-2.64-2.45-2.64-1.56,0-2.48,1.2-2.48,2.74h0v7.6h-3.58V6.54h3.47v1.64c.81-1.37,2.39-1.99,3.83-1.99ZM50.13,6.43c.29,0,.56.04.83.06h0v3.59c-.42-.08-.75-.1-1.08-.1-1.83,0-3.41.89-3.41,3.74h0v6.04h-3.58V6.54h3.47v1.97c.81-1.74,2.64-2.08,3.77-2.08ZM69.83,6.54v13.22h-3.58V6.54h3.58ZM98.32,6.54v13.22h-3.58V6.54h3.58ZM1.99,2.33C4.54-.21,8.61-.31,11.28,2.02h0l-1.93,1.93c-1.6-1.28-3.95-1.18-5.43.3-1.59,1.59-1.59,4.17,0,5.76h0l5.45,5.44,9.3-9.28c.53-.53,1.39-.53,1.92,0,.53.53.53,1.39,0,1.92h0l-11.22,11.2L1.99,11.93C.71,10.65,0,8.94,0,7.13S.71,3.61,1.99,2.33ZM60.06,13.82l-3,.46c-.92.12-1.64.64-1.64,1.66,0,.79.56,1.54,1.73,1.54,1.52,0,2.91-.73,2.91-3.07h0v-.58ZM121.41,9.03c-1.85,0-2.87,1.41-2.95,2.61h5.91c-.04-1.33-.92-2.61-2.95-2.61ZM68.02,0c1.23,0,2.21.98,2.21,2.22s-.96,2.18-2.21,2.18-2.21-1-2.21-2.18C65.82.98,66.82-.02,68.02,0ZM96.53,0c1.23,0,2.21.98,2.21,2.22s-.96,2.18-2.21,2.18-2.21-1-2.21-2.18C94.33.98,95.31-.02,96.53,0Z"/>
</svg>